Coordinates
version=1
nRows=19
nColumns=33
inDegrees=yes

Units are S.I. units (second, meters, Newtons, ...)
Angles are in degrees.

endheader
time	ground_thorax_rot_x	ground_thorax_rot_y	ground_thorax_rot_z	ground_thorax_tx	ground_thorax_ty	ground_thorax_tz	clav_prot_r	clav_elev_r	scapula_abduction_r	scapula_elevation_r	scapula_upward_rot_r	scapula_winging_r	shoulder_elv_r	plane_of_elev_r	axial_rot_r	elbow_flexion_r	pro_sup_r	wrist_flex_r	wrist_dev_r	clav_prot_l	clav_elev_l	scapula_abduction_l	scapula_elevation_l	scapula_upward_rot_l	scapula_winging_l	shoulder_elv_l	plane_of_elev_l	axial_rot_l	elbow_flexion_l	pro_sup_l	wrist_flex_l	wrist_dev_l
      3.92000000	      4.89639116	    -12.99255390	      7.37889915	     -0.09386166	      1.04655106	      0.00968881	      0.13212539	     -2.04440976	     -4.29802862	      7.89666029	     -7.48541072	      2.44712782	     42.02507400	     17.05068641	     22.46566059	     82.35242764	     42.13999177	      8.18989768	     13.71546733	      5.79377634	    -13.11003385	     -5.12175147	     -1.92274195	    -20.17902996	     -3.79438507	     54.09327959	     -2.98734029	     -7.36568170	     88.00445706	     30.05112586	    -21.99365531	    -24.97888518
      3.93000000	      5.00575798	    -13.21020467	      7.33988843	     -0.09384827	      1.04649329	      0.01002525	     -0.41260077	     -2.05776610	     -5.01691291	      7.53139601	     -6.75484260	      2.50216860	     41.18402795	     16.77351379	     23.34876959	     81.75440362	     42.42535040	      8.79995009	     14.09744212	      5.99187531	    -13.30841517	     -5.48482270	     -1.67028651	    -20.03830885	     -3.71855933	     53.94879650	     -3.73692477	     -6.13820795	     87.89990173	     31.28420412	    -17.34499532	    -24.99999983
      3.94000000	      5.01669832	    -13.36896228	      7.39008456	     -0.09408692	      1.04638824	      0.01013020	     -0.41451530	     -2.08743597	     -5.05460067	      7.55671670	     -6.86767923	      2.53649027	     41.12218768	     16.58657658	     23.45391465	     81.34600765	     42.48165049	      8.74407258	     14.15315879	      5.98483437	    -13.31672143	     -5.46966963	     -1.67154002	    -20.05843584	     -3.72893126	     53.89328537	     -3.94347240	     -5.87552018	     86.99149785	     31.34289532	    -17.21472460	    -24.77277050
      3.95000000	      5.04315627	    -13.55101283	      7.43888797	     -0.09439673	      1.04623841	      0.01024943	     -0.40756542	     -2.14034789	     -5.05826611	      7.54428320	     -6.94849158	      2.55892688	     41.08055254	     16.45470439	     23.61814088	     80.89860417	     42.55165887	      8.70974519	     14.23278129	      5.98191915	    -13.32151630	     -5.46151369	     -1.67508483	    -20.07528928	     -3.73469251	     53.84654145	     -4.14404220	     -5.58666933	     86.12135216	     31.42420553	    -17.02425500	    -24.47426669
      3.96000000	      5.02783682	    -13.80704379	      7.44878391	     -0.09465413	      1.04597275	      0.01043585	     -0.65592111	     -2.30843146	     -5.24733888	      7.10495206	     -6.37451193	      2.51902434	     40.38928556	     16.03213908	     24.22463247	     80.40445336	     42.69961679	      8.86945929	     14.61620117	      6.08254729	    -13.30744552	     -5.64783767	     -1.65852497	    -20.00507139	     -3.65590397	     53.81527843	     -4.60470718	     -4.90415319	     86.30616836	     33.23903877	    -13.84307966	    -21.34717586
      3.97000000	      5.05450062	    -13.90346170	      7.48071594	     -0.09494928	      1.04584398	      0.01056220	     -0.65951707	     -2.35899127	     -5.26790173	      7.09077616	     -6.44767386	      2.54343276	     40.35156307	     15.90253681	     24.29927917	     79.98693647	     42.76086274	      8.82789151	     14.67264913	      6.07142962	    -13.36513288	     -5.62650273	     -1.60478582	    -20.01002670	     -3.68401200	     53.78299340	     -4.76144649	     -4.64842347	     85.42390692	     33.34161049	    -13.70356971	    -21.16696514
      3.98000000	      5.09367328	    -14.02513089	      7.52412264	     -0.09534930	      1.04567167	      0.01067778	     -0.65198801	     -2.43987200	     -5.25205763	      7.03549525	     -6.49644352	      2.55947882	     40.32514478	     15.81878845	     24.42696154	     79.50758968	     42.83715854	      8.79888212	     14.75521572	      6.06538573	    -13.41341024	     -5.61467668	     -1.55720185	    -20.00918630	     -3.70542563	     53.75988101	     -4.90785059	     -4.37592533	     84.56836823	     33.46908632	    -13.48387055	    -20.93423901
      3.99000000	      5.12053207	    -14.14233091	      7.55876453	     -0.09575765	      1.04551502	      0.01076968	     -0.64380000	     -2.53936312	     -5.22564879	      6.95842583	     -6.53737697	      2.56978939	     40.29276923	     15.75847404	     24.55735204	     79.00839751	     42.91755779	      8.77725928	     14.85145040	      6.05629042	    -13.46453395	     -5.59759144	     -1.50850695	    -20.01111148	     -3.72799532	     53.73377698	     -5.03955168	     -4.08995344	     83.76205847	     33.61822072	    -13.18501775	    -20.65863424
      4.00000000	      5.10562766	    -14.38237651	      7.59099311	     -0.09592259	      1.04523626	      0.01094582	     -0.86324874	     -2.78511841	     -5.34029673	      6.44846693	     -5.96922426	      2.52747947	     39.65111322	     15.34611018	     25.08665719	     78.51932945	     43.13233653	      9.18424111	     15.46085630	      5.99733563	    -13.49884160	     -5.48507936	     -1.50164629	    -20.07229666	     -3.78516628	     53.88388825	     -5.36487272	     -3.24655938	     84.25569339	     36.21663337	     -7.93246967	    -17.96369942
      4.01000000	      5.13909099	    -14.39404697	      7.58016595	     -0.09629858	      1.04508723	      0.01104888	     -0.86309451	     -2.87371379	     -5.32968991	      6.37804363	     -6.00141143	      2.54340443	     39.60766669	     15.28728379	     25.06951003	     78.03987468	     43.19476056	      9.10904550	     15.50440428	      5.99859063	    -13.59962024	     -5.49025261	     -1.38695242	    -20.03605810	     -3.81543390	     53.86464431	     -5.42835063	     -3.03868237	     83.44065618	     36.32474713	     -7.76217141	    -17.78932600
      4.02000000	      5.17321517	    -14.41775958	      7.59712968	     -0.09675935	      1.04492369	      0.01110779	     -0.85043385	     -2.98389735	     -5.28802353	      6.28189250	     -6.02370757	      2.55122657	     39.57176687	     15.25278118	     25.10186265	     77.50558169	     43.26822302	      9.04762881	     15.57345709	      6.00268978	    -13.68155307	     -5.50116038	     -1.29461329	    -20.00930672	     -3.83925560	     53.84220990	     -5.48163601	     -2.83815610	     82.66343845	     36.45506693	     -7.48557782	    -17.55933169
      4.03000000	      5.20744306	    -14.43967548	      7.62693813	     -0.09726567	      1.04475386	      0.01117471	     -0.83684868	     -3.11589700	     -5.23493250	      6.16036597	     -6.03675445	      2.55983168	     39.53171776	     15.23312333	     25.13439787	     76.92459912	     43.34567455	      8.99350019	     15.66127589	      6.00498292	    -13.75969611	     -5.50626132	     -1.20761356	    -19.98652334	     -3.86254115	     53.81129028	     -5.50869304	     -2.63259397	     81.91348097	     36.61257065	     -7.08348851	    -17.25972630
      4.04000000	      5.09061972	    -14.53810502	      7.63459506	     -0.09750775	      1.04420037	      0.01117935	     -0.92786288	     -3.29257911	     -5.15510975	      5.74990900	     -5.53090811	      2.47539162	     38.89392023	     14.85726310	     25.37156913	     76.40144957	     43.39609553	      9.27009193	     16.18439285	      5.95256299	    -13.56370948	     -5.41674582	     -1.40650757	    -20.00840016	     -3.82860552	     53.86714404	     -5.34484113	     -1.96059393	     82.47741561	     38.74010571	     -0.85603607	    -14.12790374
      4.05000000	      5.11905378	    -14.48262773	      7.63859032	     -0.09794466	      1.04412066	      0.01124437	     -0.92711601	     -3.42374622	     -5.13385451	      5.63909858	     -5.56339656	      2.49627268	     38.84286315	     14.82654696	     25.29961604	     75.84863691	     43.46167680	      9.18414258	     16.23272034	      5.95961155	    -13.71739573	     -5.43172434	     -1.24073672	    -19.97306721	     -3.87297001	     53.85788463	     -5.38671107	     -1.81983331	     81.72285348	     38.87788735	     -0.68430471	    -13.98483607
      4.06000000	      5.13652777	    -14.40581721	      7.66455559	     -0.09844754	      1.04398474	      0.01134438	     -0.91074312	     -3.56062076	     -5.07797135	      5.51520483	     -5.58204081	      2.50704176	     38.80552088	     14.81073597	     25.27386477	     75.24064103	     43.52935577	      9.10887177	     16.30627437	      5.96661914	    -13.84847335	     -5.44759325	     -1.09248600	    -19.92885343	     -3.91239534	     53.84858600	     -5.39787150	     -1.69029228	     80.97797251	     39.02512446	     -0.42580771	    -13.78923895
      4.07000000	      5.15793603	    -14.32406678	      7.69656005	     -0.09900708	      1.04382490	      0.01137058	     -0.89289465	     -3.71200527	     -5.01195638	      5.37116723	     -5.58604483	      2.51647155	     38.76702815	     14.80620335	     25.23876903	     74.58603810	     43.59212884	      9.03738557	     16.39812256	      5.96959057	    -13.96954159	     -5.45669217	     -0.95479263	    -19.88647711	     -3.95009028	     53.82587165	     -5.37152084	     -1.56388323	     80.25732681	     39.18886452	     -0.07444715	    -13.54223599
      4.08000000	      5.04246060	    -14.30083739	      7.64177599	     -0.09924121	      1.04333835	      0.01127680	     -0.93002567	     -3.87481115	     -4.82402680	      4.96248770	     -5.04913505	      2.40329967	     38.15689111	     14.45451026	     25.28404517	     73.92441724	     43.34205173	      9.30381720	     17.02220091	      5.85507201	    -13.82138692	     -5.26237725	     -1.09416374	    -19.88697135	     -3.96938000	     53.85673705	     -4.97999405	     -1.15882866	     80.53634956	     41.08065302	      5.01470948	    -11.16504161
      4.09000000	      5.04560445	    -14.16737426	      7.69462203	     -0.09970828	      1.04327889	      0.01127246	     -0.91517780	     -4.02858646	     -4.77842308	      4.83476380	     -5.09278322	      2.42575440	     38.10736888	     14.41894951	     25.20371533	     73.27045527	     43.42203457	      9.19853089	     17.07735359	      5.86175598	    -13.98934772	     -5.27442325	     -0.91799762	    -19.85911129	     -4.02332909	     53.82768361	     -4.99015179	     -1.05938498	     79.82185800	     41.20854121	      5.15264679	    -11.05636499
      4.10000000	      5.04465802	    -14.01545225	      7.72443356	     -0.10019646	      1.04316822	      0.01130698	     -0.88630135	     -4.18637160	     -4.69673934	      4.69029754	     -5.10819691	      2.43695168	     38.07657463	     14.40512412	     25.14624261	     72.57321572	     43.49754842	      9.10101120	     17.15615019	      5.87265798	    -14.14048568	     -5.29585164	     -0.75292149	    -19.82014228	     -4.06811579	     53.80294266	     -4.95111211	     -0.99177250	     79.13579241	     41.34845505	      5.34426605	    -10.92750209
